<?xml version="1.0"?>
<svg xmlns="http://www.w3.org/2000/svg" viewBox="0 0 50 50">
    <path
        d="M 29 7 L 23.308594 9 L 29 11 L 34.691406 9 L 29 7 z M 43 7 L 37.308594 9 L 43 11 L 48.691406 9 L 43 7 z M 23 11 L 23 17.332031 L 28 19 L 28 12.667969 L 23 11 z M 35 11 L 30 12.667969 L 30 19 L 35 17.332031 L 35 11 z M 37 11 L 37 17.332031 L 42 19 L 42 12.667969 L 37 11 z M 49 11 L 44 12.667969 L 44 19 L 49 17.332031 L 49 11 z M 8 19 L 2.3085938 21 L 8 23 L 13.691406 21 L 8 19 z M 22 19 L 16.308594 21 L 22 23 L 27.691406 21 L 22 19 z M 2 23 L 2 29.332031 L 7 31 L 7 24.667969 L 2 23 z M 14 23 L 9 24.667969 L 9 31 L 14 29.332031 L 14 23 z M 16 23 L 16 29.332031 L 21 31 L 21 24.667969 L 16 23 z M 28 23 L 23 24.667969 L 23 31 L 28 29.332031 L 28 23 z M 15 31 L 9.3085938 33 L 15 35 L 20.691406 33 L 15 31 z M 9 35 L 9 41.332031 L 14 43 L 14 36.667969 L 9 35 z M 21 35 L 16 36.667969 L 16 43 L 21 41.332031 L 21 35 z" />
</svg>