<svg xmlns="http://www.w3.org/2000/svg" xmlns:xlink="http://www.w3.org/1999/xlink" viewBox="0 0 408.42 322.76"><defs><linearGradient id="linear-gradient" x1="130.56" y1="151.69" x2="412.74" y2="345.33" gradientUnits="userSpaceOnUse"><stop offset="0" stop-color="#013a49"/><stop offset="1" stop-color="#004c6d"/></linearGradient><linearGradient id="linear-gradient-2" x1="347.83" y1="202.25" x2="138.4" y2="411.68" gradientUnits="userSpaceOnUse"><stop offset="0" stop-color="#8eccf0"/><stop offset="1" stop-color="#4eafe3"/></linearGradient></defs><g id="Layer_1" data-name="Layer 1"><path d="M453.07,276.36a54,54,0,0,1-4.14,14.25,56.94,56.94,0,0,1-2.84,5.27A72.68,72.68,0,0,1,427.58,316a70.79,70.79,0,0,1-24.34,12.09,50.4,50.4,0,0,1-11.52,1.68c-15.68.38-31.38.17-47.07.17-73.68,0-147.36-.11-221,.09-17.89,0-34.09-4.2-48.5-15-35.8-26.91-39.42-80.1-7.54-111.52a71.64,71.64,0,0,1,33.9-19.18c2.78-.67,4-1.95,4.66-4.83,5.44-24.23,25-40.4,49.79-40.94a40.63,40.63,0,0,1,17.18,2.88c3,1.32,4.31.35,5.91-2.26,18.21-29.72,44.17-49.38,78.43-55.94,50-9.57,91.21,6.31,122.41,46.65,15.06,19.47,22.2,42.1,23.29,66.62.11,2.45.65,3.59,3.24,4.41q19.1,6,30.74,18.71A51,51,0,0,1,445.71,233a120.9,120.9,0,0,1,6.36,16.09,55,55,0,0,1,1.59,7.06,61.18,61.18,0,0,1-.23,17.82C453.32,274.79,453.2,275.57,453.07,276.36Z" transform="translate(-45.79 -80.52)" fill="url(#linear-gradient)"/></g><g id="Layer_2" data-name="Layer 2"><path d="M116.47,380.51V220c.55-1,.13-2.06.27-3.09.42-10.25,11.92-19.66,22.22-19.65q24.48,0,49,0c12.24,0,24.48.08,36.72,0a9.11,9.11,0,0,1,7.84,3.64c5.5,6.72,11.16,13.3,16.69,20a7.6,7.6,0,0,0,6.45,3q50.65-.1,101.31,0c7.18,0,13.76,1.69,19.18,6.7a21.35,21.35,0,0,1,7.41,16.3q0,66.67,0,133.34c0,14-12.91,23.08-23.2,23.08q-110.41-.11-220.85,0a24,24,0,0,1-21.76-14.8,17.59,17.59,0,0,1-1-4.81C116.61,382.59,117,381.51,116.47,380.51Z" transform="translate(-45.79 -80.52)" fill="url(#linear-gradient-2)"/></g></svg>