<svg xmlns="http://www.w3.org/2000/svg" viewBox="0 0 24 24" id="nextcloud">
  <path fill="#197EC3" d="M24 12.001c-.009-1.973-1.594-3.569-3.552-3.578h-.001c-1.416 0-2.63.864-3.199 2.081-.654-2.3-2.743-4.005-5.23-4.004-2.5 0-4.6 1.724-5.241 4.042-.56-1.24-1.793-2.119-3.225-2.119C1.594 8.433.009 10.029 0 11.999V12c.009 1.971 1.594 3.567 3.551 3.577h.001c1.432 0 2.664-.88 3.224-2.12.641 2.32 2.742 4.043 5.242 4.043 2.487 0 4.576-1.705 5.231-4.004.569 1.218 1.783 2.081 3.198 2.081 1.959-.008 3.545-1.605 3.553-3.576zM3.552 13.478h-.015a1.457 1.457 0 0 1-1.452-1.462V12c0-.829.644-1.477 1.467-1.477v-.001c.822 0 1.467.649 1.467 1.478s-.644 1.477-1.467 1.478zm8.466 1.923h-.015c-1.857 0-3.362-1.515-3.362-3.385V12c0-1.891 1.5-3.401 3.377-3.401 1.878 0 3.378 1.51 3.378 3.401s-1.5 3.401-3.378 3.401zm8.429-1.923h-.015a1.457 1.457 0 0 1-1.452-1.462V12c0-.829.644-1.477 1.467-1.477v-.001c.823 0 1.468.649 1.468 1.478s-.645 1.478-1.468 1.478z"></path>
  <path d="M23.229 7.148v.001h.001z"></path>
</svg>
